<svg width="24" height="24" viewBox="0 0 24 24" fill="none" xmlns="http://www.w3.org/2000/svg">
<path d="M12 24C10.32 24 8.75 23.685 7.29 23.055C5.83 22.425 4.56 21.57 3.48 20.49C2.4 19.41 1.55 18.135 0.93 16.665C0.31 15.195 0 13.62 0 11.94C0 10.26 0.31 8.695 0.93 7.245C1.55 5.795 2.4 4.53 3.48 3.45C4.56 2.37 5.83 1.525 7.29 0.915C8.75 0.305 10.32 0 12 0C13.68 0 15.25 0.305 16.71 0.915C18.17 1.525 19.44 2.37 20.52 3.45C21.6 4.53 22.45 5.795 23.07 7.245C23.69 8.695 24 10.26 24 11.94C24 13.62 23.69 15.195 23.07 16.665C22.45 18.135 21.6 19.41 20.52 20.49C19.44 21.57 18.17 22.425 16.71 23.055C15.25 23.685 13.68 24 12 24ZM12 22.26C12.7 21.54 13.285 20.715 13.755 19.785C14.225 18.855 14.61 17.75 14.91 16.47H9.12C9.4 17.67 9.775 18.75 10.245 19.71C10.715 20.67 11.3 21.52 12 22.26ZM9.45 21.9C8.95 21.14 8.52 20.32 8.16 19.44C7.8 18.56 7.5 17.57 7.26 16.47H2.76C3.52 17.89 4.4 19.005 5.4 19.815C6.4 20.625 7.75 21.32 9.45 21.9ZM14.58 21.87C16.02 21.41 17.315 20.72 18.465 19.8C19.615 18.88 20.54 17.77 21.24 16.47H16.77C16.51 17.55 16.205 18.53 15.855 19.41C15.505 20.29 15.08 21.11 14.58 21.87ZM2.16 14.67H6.93C6.87 14.13 6.835 13.645 6.825 13.215C6.815 12.785 6.81 12.36 6.81 11.94C6.81 11.44 6.82 10.995 6.84 10.605C6.86 10.215 6.9 9.78 6.96 9.3H2.16C2.02 9.78 1.925 10.21 1.875 10.59C1.825 10.97 1.8 11.42 1.8 11.94C1.8 12.46 1.825 12.925 1.875 13.335C1.925 13.745 2.02 14.19 2.16 14.67ZM8.79 14.67H15.24C15.32 14.05 15.37 13.545 15.39 13.155C15.41 12.765 15.42 12.36 15.42 11.94C15.42 11.54 15.41 11.155 15.39 10.785C15.37 10.415 15.32 9.92 15.24 9.3H8.79C8.71 9.92 8.66 10.415 8.64 10.785C8.62 11.155 8.61 11.54 8.61 11.94C8.61 12.36 8.62 12.765 8.64 13.155C8.66 13.545 8.71 14.05 8.79 14.67ZM17.04 14.67H21.84C21.98 14.19 22.075 13.745 22.125 13.335C22.175 12.925 22.2 12.46 22.2 11.94C22.2 11.42 22.175 10.97 22.125 10.59C22.075 10.21 21.98 9.78 21.84 9.3H17.07C17.13 10 17.17 10.535 17.19 10.905C17.21 11.275 17.22 11.62 17.22 11.94C17.22 12.38 17.205 12.795 17.175 13.185C17.145 13.575 17.1 14.07 17.04 14.67ZM16.74 7.5H21.24C20.58 6.12 19.675 4.97 18.525 4.05C17.375 3.13 16.05 2.48 14.55 2.1C15.05 2.84 15.475 3.64 15.825 4.5C16.175 5.36 16.48 6.36 16.74 7.5ZM9.12 7.5H14.94C14.72 6.44 14.35 5.415 13.83 4.425C13.31 3.435 12.7 2.56 12 1.8C11.36 2.34 10.82 3.05 10.38 3.93C9.94 4.81 9.52 6 9.12 7.5ZM2.76 7.5H7.29C7.51 6.42 7.79 5.455 8.13 4.605C8.47 3.755 8.9 2.93 9.42 2.13C7.92 2.51 6.61 3.15 5.49 4.05C4.37 4.95 3.46 6.1 2.76 7.5Z" fill="url(#paint0_linear_19_45)"/>
<defs>
<linearGradient id="paint0_linear_19_45" x1="12" y1="0" x2="12" y2="24" gradientUnits="userSpaceOnUse">
<stop stop-color="#FBA33C"/>
<stop offset="1" stop-color="#F2972C"/>
</linearGradient>
</defs>
</svg>
