<svg width="32" height="32" viewBox="0 0 32 32" fill="none" xmlns="http://www.w3.org/2000/svg">
<g clip-path="url(#clip0_20_219)">
<path d="M8.8988 8.54179H12.6262L16.5631 18.1466H16.7306L20.6675 8.54179H24.3949V22.8373H21.4632V13.5327H21.3445L17.645 22.7675H15.6487L11.9492 13.4978H11.8305V22.8373H8.8988V8.54179Z" fill="#E8F8FF"/>
<path d="M27.7857 11.4121L31.8398 15.4457C31.9627 15.5686 32.0241 15.7119 32.0241 15.8757C32.0241 16.0395 31.9627 16.1828 31.8398 16.3057L27.7448 20.4007C27.6219 20.5236 27.4752 20.585 27.3046 20.585C27.1339 20.585 26.9872 20.5236 26.8643 20.4007C26.7415 20.2779 26.6801 20.1311 26.6801 19.9605C26.6801 19.7899 26.7415 19.6431 26.8643 19.5203L30.5089 15.8757L26.9053 12.272C26.7824 12.1492 26.721 12.0058 26.721 11.842C26.721 11.6782 26.7824 11.5349 26.9053 11.4121C27.0281 11.2892 27.1749 11.2278 27.3455 11.2278C27.5161 11.2278 27.6629 11.2892 27.7857 11.4121Z" fill="url(#paint0_linear_20_219)"/>
<path d="M4.21422 19.8786L0.160108 15.845C0.0372562 15.7221 -0.0241699 15.5788 -0.0241699 15.415C-0.0241699 15.2512 0.0372562 15.1079 0.160108 14.985L4.25517 10.8899C4.37803 10.7671 4.52477 10.7057 4.69539 10.7057C4.86602 10.7057 5.01276 10.7671 5.13561 10.8899C5.25846 11.0128 5.31989 11.1595 5.31989 11.3302C5.31989 11.5008 5.25846 11.6475 5.13561 11.7704L1.491 15.415L5.09466 19.0186C5.21751 19.1415 5.27894 19.2848 5.27894 19.4486C5.27894 19.6124 5.21751 19.7558 5.09466 19.8786C4.97181 20.0015 4.82507 20.0629 4.65444 20.0629C4.48381 20.0629 4.33708 20.0015 4.21422 19.8786Z" fill="url(#paint1_linear_20_219)"/>
</g>
<defs>
<linearGradient id="paint0_linear_20_219" x1="29.3521" y1="11.2278" x2="29.3521" y2="20.585" gradientUnits="userSpaceOnUse">
<stop stop-color="#FBA33C"/>
<stop offset="1" stop-color="#F2972C"/>
</linearGradient>
<linearGradient id="paint1_linear_20_219" x1="2.64786" y1="10.7057" x2="2.64786" y2="20.0629" gradientUnits="userSpaceOnUse">
<stop stop-color="#FBA33C"/>
<stop offset="1" stop-color="#F2972C"/>
</linearGradient>
<clipPath id="clip0_20_219">
<rect width="32" height="32" fill="white"/>
</clipPath>
</defs>
</svg>
