<svg width="32" height="33" viewBox="0 0 32 33" fill="none" xmlns="http://www.w3.org/2000/svg">
<path d="M14.6665 4.16663C8.04974 4.16663 2.6665 9.54987 2.6665 16.1666C2.6665 22.7834 8.04974 28.1666 14.6665 28.1666C21.2833 28.1666 26.6665 22.7834 26.6665 16.1666C26.6665 9.54987 21.2833 4.16663 14.6665 4.16663ZM14.6665 5.96663C20.3105 5.96663 24.8665 10.5227 24.8665 16.1666C24.8665 20.7658 21.8407 24.6401 17.6665 25.9178V22.8487C17.6665 21.7026 17.0061 20.7198 16.0517 20.2307C16.9797 20.0531 17.8414 19.7011 18.5653 19.2038C19.2891 18.7064 19.8543 18.0781 20.2139 17.3711C20.5734 16.664 20.717 15.8985 20.6327 15.1381C20.5484 14.3778 20.2386 13.6444 19.729 12.999C19.9951 12.1799 20.2924 10.743 19.586 9.61233C18.2241 9.61233 17.3453 10.5459 16.9259 11.1264C16.2089 10.8908 15.4416 10.7687 14.6665 10.7666C13.8909 10.7673 13.1228 10.8883 12.4048 11.1229C11.9843 10.5421 11.1062 9.61233 9.74697 9.61233C8.93633 10.9099 9.43746 12.3054 9.70596 12.8748C9.16196 13.5174 8.82085 14.256 8.71187 15.0272C8.6029 15.7984 8.7293 16.5792 9.08024 17.3028C9.43118 18.0263 9.99621 18.671 10.7269 19.1816C11.4575 19.6921 12.3321 20.0533 13.2755 20.2342C12.4918 20.6381 11.9049 21.3711 11.7251 22.2604H10.9364C10.1582 22.2604 9.85585 21.9442 9.43525 21.4108C9.02005 20.8774 8.57361 20.5189 8.03721 20.3701C7.74801 20.3395 7.55318 20.5595 7.80518 20.7545C8.65658 21.3341 8.71534 22.2827 9.05674 22.9037C9.36754 23.4629 10.0043 23.9666 10.7243 23.9666H11.6665V25.9178C7.49234 24.6401 4.4665 20.7658 4.4665 16.1666C4.4665 10.5227 9.02254 5.96663 14.6665 5.96663Z" fill="#E8F8FF"/>
</svg>
