<svg width="74" height="32" viewBox="0 0 74 32" fill="none" xmlns="http://www.w3.org/2000/svg">
<path d="M7.66667 4C5.65348 4 4 5.65348 4 7.66667V24.3333C4 26.3465 5.65348 28 7.66667 28H24.3333C26.3465 28 28 26.3465 28 24.3333V7.66667C28 5.65348 26.3465 4 24.3333 4H7.66667ZM7.66667 6H24.3333C25.2655 6 26 6.73452 26 7.66667V24.3333C26 25.2655 25.2655 26 24.3333 26H7.66667C6.73452 26 6 25.2655 6 24.3333V7.66667C6 6.73452 6.73452 6 7.66667 6ZM10.3333 8.66667C9.89131 8.66667 9.46738 8.84226 9.15482 9.15482C8.84226 9.46738 8.66667 9.89131 8.66667 10.3333C8.66667 10.7754 8.84226 11.1993 9.15482 11.5118C9.46738 11.8244 9.89131 12 10.3333 12C10.7754 12 11.1993 11.8244 11.5118 11.5118C11.8244 11.1993 12 10.7754 12 10.3333C12 9.89131 11.8244 9.46738 11.5118 9.15482C11.1993 8.84226 10.7754 8.66667 10.3333 8.66667ZM9.33333 13.3333C8.96467 13.3333 8.66667 13.6313 8.66667 14V22.6667C8.66667 23.0353 8.96467 23.3333 9.33333 23.3333H11.3333C11.702 23.3333 12 23.0353 12 22.6667V14C12 13.6313 11.702 13.3333 11.3333 13.3333H9.33333ZM14 13.3333C13.6313 13.3333 13.3333 13.6313 13.3333 14V22.6667C13.3333 23.0353 13.6313 23.3333 14 23.3333H16C16.3687 23.3333 16.6667 23.0353 16.6667 22.6667V17.6667C16.6667 16.7473 17.414 16 18.3333 16C19.2527 16 20 16.7473 20 17.6667V22.6667C20 23.0353 20.298 23.3333 20.6667 23.3333H22.6667C23.0353 23.3333 23.3333 23.0353 23.3333 22.6667V17.3333C23.3333 15.1273 21.5393 13.3333 19.3333 13.3333C18.308 13.3333 17.3753 13.724 16.6667 14.3607V14C16.6667 13.6313 16.3687 13.3333 16 13.3333H14Z" fill="#E8F8FF"/>
<path d="M56.6665 3.66663C50.0497 3.66663 44.6665 9.04987 44.6665 15.6666C44.6665 22.2834 50.0497 27.6666 56.6665 27.6666C63.2833 27.6666 68.6665 22.2834 68.6665 15.6666C68.6665 9.04987 63.2833 3.66663 56.6665 3.66663ZM56.6665 5.46663C62.3105 5.46663 66.8665 10.0227 66.8665 15.6666C66.8665 20.2658 63.8407 24.1401 59.6665 25.4178V22.3487C59.6665 21.2026 59.0061 20.2198 58.0517 19.7307C58.9797 19.5531 59.8414 19.2011 60.5653 18.7038C61.2892 18.2064 61.8543 17.5781 62.2139 16.8711C62.5734 16.164 62.717 15.3985 62.6327 14.6381C62.5484 13.8778 62.2386 13.1444 61.729 12.499C61.9951 11.6799 62.2924 10.243 61.586 9.11233C60.2241 9.11233 59.3453 10.0459 58.9259 10.6264C58.2089 10.3908 57.4416 10.2687 56.6665 10.2666C55.8909 10.2673 55.1228 10.3883 54.4048 10.6229C53.9843 10.0421 53.1062 9.11233 51.747 9.11233C50.9363 10.4099 51.4375 11.8054 51.706 12.3748C51.162 13.0174 50.8209 13.756 50.7119 14.5272C50.6029 15.2984 50.7293 16.0792 51.0802 16.8028C51.4312 17.5263 51.9962 18.171 52.7269 18.6816C53.4575 19.1921 54.3321 19.5533 55.2755 19.7342C54.4918 20.1381 53.9049 20.8711 53.7251 21.7604H52.9364C52.1582 21.7604 51.8559 21.4442 51.4353 20.9108C51.0201 20.3774 50.5736 20.0189 50.0372 19.8701C49.748 19.8395 49.5532 20.0595 49.8052 20.2545C50.6566 20.8341 50.7153 21.7827 51.0567 22.4037C51.3675 22.9629 52.0043 23.4666 52.7243 23.4666H53.6665V25.4178C49.4923 24.1401 46.4665 20.2658 46.4665 15.6666C46.4665 10.0227 51.0225 5.46663 56.6665 5.46663Z" fill="#E8F8FF"/>
</svg>
