<svg width="24" height="24" viewBox="0 0 24 24" fill="none" xmlns="http://www.w3.org/2000/svg">
<path d="M5.5 22C5.1 22 4.75 21.85 4.45 21.55C4.15 21.25 4 20.9 4 20.5V3.5C4 3.1 4.15 2.75 4.45 2.45C4.75 2.15 5.1 2 5.5 2H18.5C18.9 2 19.25 2.15 19.55 2.45C19.85 2.75 20 3.1 20 3.5V20.5C20 20.9 19.85 21.25 19.55 21.55C19.25 21.85 18.9 22 18.5 22H5.5ZM5.5 20.5H18.5V3.5H17V9.5C17 9.65 16.9417 9.7625 16.825 9.8375C16.7083 9.9125 16.5833 9.90833 16.45 9.825L14.575 8.75L12.7 9.825C12.5667 9.90833 12.4417 9.9125 12.325 9.8375C12.2083 9.7625 12.15 9.65 12.15 9.5V3.5H5.5V20.5ZM12.15 3.5H17H12.15ZM5.5 3.5H18.5H5.5Z" fill="url(#paint0_linear_19_42)"/>
<defs>
<linearGradient id="paint0_linear_19_42" x1="12" y1="2" x2="12" y2="22" gradientUnits="userSpaceOnUse">
<stop stop-color="#FBA33C"/>
<stop offset="1" stop-color="#F2972C"/>
</linearGradient>
</defs>
</svg>
