<svg width="32" height="33" viewBox="0 0 32 33" fill="none" xmlns="http://www.w3.org/2000/svg">
<path d="M7.66667 4.5C5.65348 4.5 4 6.15348 4 8.16667V24.8333C4 26.8465 5.65348 28.5 7.66667 28.5H24.3333C26.3465 28.5 28 26.8465 28 24.8333V8.16667C28 6.15348 26.3465 4.5 24.3333 4.5H7.66667ZM7.66667 6.5H24.3333C25.2655 6.5 26 7.23452 26 8.16667V24.8333C26 25.7655 25.2655 26.5 24.3333 26.5H7.66667C6.73452 26.5 6 25.7655 6 24.8333V8.16667C6 7.23452 6.73452 6.5 7.66667 6.5ZM10.3333 9.16667C9.89131 9.16667 9.46738 9.34226 9.15482 9.65482C8.84226 9.96738 8.66667 10.3913 8.66667 10.8333C8.66667 11.2754 8.84226 11.6993 9.15482 12.0118C9.46738 12.3244 9.89131 12.5 10.3333 12.5C10.7754 12.5 11.1993 12.3244 11.5118 12.0118C11.8244 11.6993 12 11.2754 12 10.8333C12 10.3913 11.8244 9.96738 11.5118 9.65482C11.1993 9.34226 10.7754 9.16667 10.3333 9.16667ZM9.33333 13.8333C8.96467 13.8333 8.66667 14.1313 8.66667 14.5V23.1667C8.66667 23.5353 8.96467 23.8333 9.33333 23.8333H11.3333C11.702 23.8333 12 23.5353 12 23.1667V14.5C12 14.1313 11.702 13.8333 11.3333 13.8333H9.33333ZM14 13.8333C13.6313 13.8333 13.3333 14.1313 13.3333 14.5V23.1667C13.3333 23.5353 13.6313 23.8333 14 23.8333H16C16.3687 23.8333 16.6667 23.5353 16.6667 23.1667V18.1667C16.6667 17.2473 17.414 16.5 18.3333 16.5C19.2527 16.5 20 17.2473 20 18.1667V23.1667C20 23.5353 20.298 23.8333 20.6667 23.8333H22.6667C23.0353 23.8333 23.3333 23.5353 23.3333 23.1667V17.8333C23.3333 15.6273 21.5393 13.8333 19.3333 13.8333C18.308 13.8333 17.3753 14.224 16.6667 14.8607V14.5C16.6667 14.1313 16.3687 13.8333 16 13.8333H14Z" fill="#E8F8FF"/>
</svg>
