<svg width="284" height="58" viewBox="0 0 284 58" fill="none" xmlns="http://www.w3.org/2000/svg">
<path d="M51.0341 11.0909H60.1363L69.75 34.5455H70.1591L79.7727 11.0909H88.875V46H81.7159V23.2784H81.4261L72.392 45.8295H67.517L58.4829 23.1932H58.1931V46H51.0341V11.0909Z" fill="#E8F8FF"/>
<path d="M116.518 11.0909H123.899V33.7614C123.899 36.3068 123.291 38.5341 122.075 40.4432C120.871 42.3523 119.183 43.8409 117.013 44.9091C114.842 45.9659 112.314 46.4943 109.428 46.4943C106.53 46.4943 103.996 45.9659 101.825 44.9091C99.6548 43.8409 97.9673 42.3523 96.7628 40.4432C95.5582 38.5341 94.9559 36.3068 94.9559 33.7614V11.0909H102.337V33.1307C102.337 34.4602 102.626 35.642 103.206 36.6761C103.797 37.7102 104.626 38.5227 105.695 39.1136C106.763 39.7045 108.007 40 109.428 40C110.859 40 112.104 39.7045 113.16 39.1136C114.229 38.5227 115.053 37.7102 115.632 36.6761C116.223 35.642 116.518 34.4602 116.518 33.1307V11.0909Z" fill="#E8F8FF"/>
<path d="M129.972 46V11.0909H143.744C146.381 11.0909 148.631 11.5625 150.494 12.5057C152.369 13.4375 153.795 14.7614 154.773 16.4773C155.761 18.1818 156.256 20.1875 156.256 22.4943C156.256 24.8125 155.756 26.8068 154.756 28.4773C153.756 30.1364 152.307 31.4091 150.409 32.2955C148.523 33.1818 146.239 33.625 143.557 33.625H134.335V27.6932H142.364C143.773 27.6932 144.943 27.5 145.875 27.1136C146.807 26.7273 147.5 26.1477 147.955 25.375C148.42 24.6023 148.653 23.642 148.653 22.4943C148.653 21.3352 148.42 20.358 147.955 19.5625C147.5 18.767 146.801 18.1648 145.858 17.7557C144.926 17.3352 143.75 17.125 142.33 17.125H137.352V46H129.972ZM148.824 30.1136L157.5 46H149.352L140.864 30.1136H148.824Z" fill="#E8F8FF"/>
<path d="M168.852 11.0909V46H161.472V11.0909H168.852Z" fill="#E8F8FF"/>
<path d="M174.925 46V11.0909H182.305V39.9148H197.271V46H174.925Z" fill="#E8F8FF"/>
<path d="M232.879 28.5455C232.879 32.3523 232.158 35.5909 230.714 38.2614C229.283 40.9318 227.328 42.9716 224.851 44.3807C222.385 45.7784 219.612 46.4773 216.533 46.4773C213.43 46.4773 210.646 45.7727 208.18 44.3636C205.714 42.9545 203.766 40.9148 202.334 38.2443C200.902 35.5739 200.186 32.3409 200.186 28.5455C200.186 24.7386 200.902 21.5 202.334 18.8295C203.766 16.1591 205.714 14.125 208.18 12.7273C210.646 11.3182 213.43 10.6136 216.533 10.6136C219.612 10.6136 222.385 11.3182 224.851 12.7273C227.328 14.125 229.283 16.1591 230.714 18.8295C232.158 21.5 232.879 24.7386 232.879 28.5455ZM225.396 28.5455C225.396 26.0795 225.027 24 224.288 22.3068C223.561 20.6136 222.533 19.3295 221.203 18.4545C219.874 17.5795 218.317 17.142 216.533 17.142C214.749 17.142 213.192 17.5795 211.862 18.4545C210.533 19.3295 209.499 20.6136 208.76 22.3068C208.033 24 207.669 26.0795 207.669 28.5455C207.669 31.0114 208.033 33.0909 208.76 34.7841C209.499 36.4773 210.533 37.7614 211.862 38.6364C213.192 39.5114 214.749 39.9489 216.533 39.9489C218.317 39.9489 219.874 39.5114 221.203 38.6364C222.533 37.7614 223.561 36.4773 224.288 34.7841C225.027 33.0909 225.396 31.0114 225.396 28.5455Z" fill="#E8F8FF"/>
<path d="M244.405 18.1L254.305 27.95C254.605 28.25 254.755 28.6 254.755 29C254.755 29.4 254.605 29.75 254.305 30.05L244.305 40.05C244.005 40.35 243.647 40.5 243.23 40.5C242.814 40.5 242.455 40.35 242.155 40.05C241.855 39.75 241.705 39.3917 241.705 38.975C241.705 38.5583 241.855 38.2 242.155 37.9L251.055 29L242.255 20.2C241.955 19.9 241.805 19.55 241.805 19.15C241.805 18.75 241.955 18.4 242.255 18.1C242.555 17.8 242.914 17.65 243.33 17.65C243.747 17.65 244.105 17.8 244.405 18.1Z" fill="url(#paint0_linear_20_208)"/>
<path d="M39.5946 39.9L29.6946 30.05C29.3946 29.75 29.2446 29.4 29.2446 29C29.2446 28.6 29.3946 28.25 29.6946 27.95L39.6946 17.95C39.9946 17.65 40.353 17.5 40.7696 17.5C41.1863 17.5 41.5446 17.65 41.8446 17.95C42.1446 18.25 42.2946 18.6083 42.2946 19.025C42.2946 19.4417 42.1446 19.8 41.8446 20.1L32.9446 29L41.7446 37.8C42.0446 38.1 42.1946 38.45 42.1946 38.85C42.1946 39.25 42.0446 39.6 41.7446 39.9C41.4446 40.2 41.0863 40.35 40.6696 40.35C40.253 40.35 39.8946 40.2 39.5946 39.9Z" fill="url(#paint1_linear_20_208)"/>
<defs>
<linearGradient id="paint0_linear_20_208" x1="248.23" y1="17.65" x2="248.23" y2="40.5" gradientUnits="userSpaceOnUse">
<stop stop-color="#FBA33C"/>
<stop offset="1" stop-color="#F2972C"/>
</linearGradient>
<linearGradient id="paint1_linear_20_208" x1="35.7696" y1="17.5" x2="35.7696" y2="40.35" gradientUnits="userSpaceOnUse">
<stop stop-color="#FBA33C"/>
<stop offset="1" stop-color="#F2972C"/>
</linearGradient>
</defs>
</svg>
